Coordinates
version=1
nRows=29
nColumns=24
inDegrees=yes

Units are S.I. units (second, meters, Newtons, ...)
Angles are in degrees.

endheader
time	pelvis_tilt	pelvis_list	pelvis_rotation	pelvis_tx	pelvis_ty	pelvis_tz	hip_flexion_r	hip_adduction_r	hip_rotation_r	knee_angle_r	ankle_angle_r	subtalar_angle_r	mtp_angle_r	hip_flexion_l	hip_adduction_l	hip_rotation_l	knee_angle_l	ankle_angle_l	subtalar_angle_l	mtp_angle_l	lumbar_extension	lumbar_bending	lumbar_rotation
      0.47100000	      0.23799633	      1.87510724	      5.09797313	     -0.78391537	      1.00927008	      0.26570305	     18.76288915	     -2.30445388	     -6.27857722	     -0.47971126	      3.06882084	    -13.95935847	      6.71524159	    -12.09251510	      2.46572693	      8.16439639	    -10.59983037	     11.87991331	    -13.67252144	      1.77354496	     -7.81524987	     -2.85074454	     -2.41957092
      0.47516667	      0.33211660	      1.85495519	      5.09920566	     -0.77802186	      1.00890004	      0.26612319	     18.65497725	     -2.22826946	     -6.02094918	     -0.72625936	      3.10898103	    -14.05955733	      6.72658108	    -12.22529890	      2.40454048	      8.02147764	    -11.26037542	     11.97207125	    -13.45400140	      1.81289270	     -7.86954011	     -2.79191070	     -2.42621430
      0.47933333	      0.39885087	      1.81164709	      5.08163678	     -0.77204186	      1.00851549	      0.26656524	     18.57835193	     -2.12075356	     -5.74921942	     -1.03626054	      3.07076771	    -14.20093828	      6.75367246	    -12.30559236	      2.32281578	      7.82953865	    -11.97389033	     12.06917514	    -13.17311210	      1.88518506	     -7.88001408	     -2.69822329	     -2.40428206
      0.48350000	      0.47023264	      1.76856081	      5.04381659	     -0.76599157	      1.00816210	      0.26703629	     18.48261631	     -2.00320990	     -5.43242858	     -1.37356809	      3.01227037	    -14.34695674	      6.79529714	    -12.37236822	      2.24341795	      7.60301641	    -12.72706829	     12.12546810	    -12.87681115	      1.98365599	     -7.88158634	     -2.61295456	     -2.36469412
      0.48766667	      0.53768049	      1.72000076	      4.98924185	     -0.75988505	      1.00782448	      0.26753023	     18.38434440	     -1.87136734	     -5.08834287	     -1.74571578	      2.90800311	    -14.51083510	      6.84680683	    -12.40791013	      2.16123201	      7.34099988	    -13.53924851	     12.15499344	    -12.58108055	      2.10354662	     -7.86872435	     -2.51878947	     -2.31098217
      0.49183333	      0.64988726	      1.65406972	      4.94680091	     -0.75375088	      1.00757204	      0.26802831	     18.22790991	     -1.71835168	     -4.80065610	     -2.13995634	      2.70304805	    -14.66127987	      7.66120114	    -12.44710373	      2.04397208	      7.02475810	    -14.43032712	     12.16258791	    -12.18004003	      4.06981184	     -7.91237136	     -2.40128771	     -2.40881560
      0.49600000	      0.66807220	      1.59954145	      4.85236678	     -0.74754040	      1.00721788	      0.26857594	     18.17580161	     -1.56632011	     -4.39671883	     -2.57728521	      2.52758713	    -14.86466964	      7.68549951	    -12.38156904	      1.96888047	      6.72356603	    -15.33995771	     12.09182030	    -11.91869775	      4.14941518	     -7.82034205	     -2.30097709	     -2.14996992
      0.50016667	      0.73417389	      1.53074271	      4.76133756	     -0.74134475	      1.00693849	      0.26913062	     18.07374787	     -1.39513101	     -4.04030368	     -3.04415454	      2.25772622	    -15.05554780	      7.72261991	    -12.31320403	      1.86464962	      6.36036129	    -16.35302026	     12.05987060	    -11.51229097	      4.27192593	     -7.79240352	     -2.17071976	     -2.08168817
      0.50433333	      0.79663469	      1.45695793	      4.70580230	     -0.73509995	      1.00670777	      0.26969522	     17.93726932	     -1.22274500	     -3.71062119	     -3.47096212	      1.95859496	    -15.24539102	      7.77906867	    -12.19291442	      1.73606424	      5.98581924	    -17.44173798	     11.93763669	    -11.06825773	      4.46503145	     -7.75070238	     -2.05609408	     -1.96923464
      0.50850000	      0.87663744	      1.37438580	      4.63322670	     -0.72887572	      1.00650421	      0.27027330	     17.79764384	     -1.03614271	     -3.39687356	     -3.94398278	      1.62256020	    -15.45427040	      8.89640986	    -12.04861771	      1.59735384	      5.58231435	    -18.60416638	     11.74039644	    -10.69920146	      8.64711782	     -7.73929809	     -1.91303432	     -1.87259573
      0.51266667	      0.91791221	      1.30328871	      4.54809408	     -0.72262930	      1.00628657	      0.27087381	     17.69843494	     -0.86273872	     -3.09393568	     -4.43223638	      1.27958905	    -15.56412356	      8.89752320	    -11.82699242	      1.47304665	      5.15718465	    -19.83401687	     11.51143071	    -10.25825578	      8.71072335	     -7.66509168	     -1.80215843	     -1.77732880
      0.51683333	      0.97521945	      1.22003684	      4.46564471	     -0.71640532	      1.00610646	      0.27147653	     17.58119825	     -0.67655764	     -2.80879699	     -4.93190015	      0.91555961	    -15.69784897	      8.90663396	    -11.57454242	      1.32864546	      4.72418741	    -21.14725225	     11.25708560	     -9.81503422	      8.82828269	     -7.61644025	     -1.66240281	     -1.66889671
      0.52100000	      1.02904812	      1.13531234	      4.39932112	     -0.71020137	      1.00595210	      0.27209015	     17.46485348	     -0.49377623	     -2.56319101	     -5.43928868	      0.55083695	    -15.82127009	      8.92236328	    -11.26169928	      1.16870546	      4.27941542	    -22.54785365	     10.93324273	     -9.35881815	      9.01152536	     -7.56730362	     -1.52635801	     -1.56373998
      0.52516667	      1.08651492	      1.04456947	      4.34893320	     -0.70406945	      1.00581878	      0.27271459	     17.35344079	     -0.30907934	     -2.35352603	     -5.97292287	      0.18389682	    -15.97950337	      8.94948621	    -10.89658108	      0.99118602	      3.84867233	    -24.03953655	     10.58762198	     -8.88773115	      9.35991999	     -7.53470698	     -1.38743212	     -1.45271003
      0.52933333	      1.13556025	      0.94584248	      4.26177398	     -0.69787236	      1.00570680	      0.27335400	     17.24241099	     -0.11344812	     -2.14811261	     -6.49326001	     -0.14744335	    -16.00474260	      8.97012063	    -10.50055898	      0.80394386	      3.35488440	    -25.55737991	     10.09225503	     -8.48369402	      9.65315192	     -7.46483362	     -1.23826511	     -1.35011992
      0.53350000	      1.21735678	      0.84508343	      4.20811015	     -0.69180022	      1.00565349	      0.27400044	     17.11030955	      0.07758983	     -1.99169910	     -7.04601299	     -0.48983825	    -16.11431353	      9.31239337	    -10.08234320	      0.59402376	      2.90558618	    -27.14365447	      9.46594507	     -8.16362028	     16.26109689	     -7.47370409	     -1.07684884	     -1.26988468
      0.53766667	      1.26016980	      0.74043895	      4.14741268	     -0.68574171	      1.00556936	      0.27463920	     17.03213644	      0.26402806	     -1.88280569	     -7.63015744	     -0.75186937	    -16.11317681	      9.30735066	     -9.57710281	      0.38356192	      2.46086975	    -28.81054249	      8.88303522	     -7.81303191	     16.32574249	     -7.41920481	     -0.91976568	     -1.14486611
      0.54183333	      1.31652732	      0.62489266	      4.09454544	     -0.67973511	      1.00551984	      0.27529148	     16.93816711	      0.45931564	     -1.79386917	     -8.21348059	     -0.99078529	    -16.11882443	      9.29809976	     -9.04274408	      0.14698723	      2.01959781	    -30.53654163	      8.21946712	     -7.47862249	     16.44554364	     -7.38819304	     -0.74975306	     -1.03945967
      0.54600000	      1.38307165	      0.50096956	      4.04457282	     -0.67376386	      1.00550803	      0.27594167	     16.82729240	      0.65949285	     -1.72776374	     -8.78841167	     -1.17113360	    -16.08806511	      9.28648426	     -8.48584381	     -0.10601431	      1.59032410	    -32.29803615	      7.48535111	     -7.20206507	     16.58699369	     -7.37404699	     -0.57550107	     -0.93730254
      0.55016667	      1.44400700	      0.37717838	      3.99713525	     -0.66787564	      1.00550170	      0.27659135	     16.74021434	      0.85320373	     -1.69839678	     -9.39789738	     -1.31304433	    -16.05677419	      9.26820480	     -7.88477493	     -0.36526724	      1.17755518	    -34.10301227	      6.71017692	     -6.96308878	     16.77117928	     -7.35971800	     -0.39119705	     -0.83129940
      0.55433333	      1.49927911	      0.24199585	      3.95627659	     -0.66204189	      1.00549815	      0.27725197	     16.65993999	      1.05528708	     -1.68820695	    -10.01011905	     -1.40709651	    -15.99645652	      9.24071598	     -7.24293984	     -0.64221063	      0.79561342	    -35.94550341	      5.89858654	     -6.76782673	     17.00402948	     -7.34942825	     -0.20346299	     -0.72659788
      0.55850000	      1.56493591	      0.10722269	      3.91601637	     -0.65627993	      1.00553415	      0.27790313	     16.57373010	      1.25361099	     -1.69636135	    -10.63532246	     -1.44319106	    -15.92564689	      9.19795002	     -6.58881476	     -0.91789097	      0.44674947	    -37.79712695	      5.02792086	     -6.65134747	     17.29983057	     -7.36166546	     -0.00160767	     -0.62865939
      0.56266667	      1.63979929	     -0.04485146	      3.88467511	     -0.65053759	      1.00560244	      0.27856215	     16.45628777	      1.46725830	     -1.73178212	    -11.21592719	     -1.42742249	    -15.81253882	      9.15742746	     -5.92006598	     -1.22509692	      0.10088986	    -39.66288668	      4.13696578	     -6.60177327	     17.53489602	     -7.37353414	      0.19124283	     -0.52866818
      0.56683333	      1.70411502	     -0.18767966	      3.85115255	     -0.64488591	      1.00567238	      0.27919956	     16.35844393	      1.66678289	     -1.77231197	    -11.81287735	     -1.36259145	    -15.69768115	      9.10157622	     -5.22166874	     -1.51077573	     -0.19423260	    -41.52932523	      3.24731808	     -6.61199021	     17.79010025	     -7.39820615	      0.40297307	     -0.42835750
      0.57100000	      2.24660791	     -0.44199156	      3.96284738	     -0.63917222	      1.00623110	      0.28018458	     15.63118969	      2.03408172	     -1.89262029	    -12.20094035	     -1.24553506	    -15.76702319	      9.03263230	     -5.00030927	     -2.07710635	     -0.50884024	    -43.42440959	      2.44693908	     -6.41240644	     18.02713683	     -7.95445228	      0.69935390	     -0.47950440
      0.57516667	      2.29625038	     -0.58913340	      3.93623281	     -0.63373335	      1.00632543	      0.28078151	     15.54032705	      2.23121441	     -1.95283807	    -12.76173203	     -1.13406392	    -15.63035224	      8.97774227	     -4.24363004	     -2.35308056	     -0.72928828	    -45.28587071	      1.60622113	     -6.59494515	     18.16169071	     -7.98384603	      0.91662069	     -0.37286727
      0.57933333	      2.80993159	     -0.70642540	      4.02004521	     -0.62864482	      1.00689895	      0.28165855	     14.92880469	      2.43895430	     -2.08821607	    -13.27331230	     -0.88729218	    -15.53627188	      8.93355448	     -3.94029107	     -2.70134200	     -0.89995291	    -47.14528281	      0.83011717	     -6.68215286	     18.23086373	     -8.59554535	      1.08599443	     -0.38814219
      0.58350000	      2.83505100	     -0.83565301	      3.97106725	     -0.62331247	      1.00703610	      0.28226308	     14.84563732	      2.62069329	     -2.11803874	    -13.79537933	     -0.68482211	    -15.41565734	      8.88181728	     -3.15546537	     -2.93474892	     -1.08023055	    -48.92681990	      0.07221370	     -6.98971775	     18.25352323	     -8.60748217	      1.26301743	     -0.28779100
      0.58766667	      2.87203577	     -0.96336826	      3.92534271	     -0.61798332	      1.00722534	      0.28287055	     14.72631843	      2.80243788	     -2.16035145	    -14.27610694	     -0.43983019	    -15.27250307	      8.82536585	     -2.38595919	     -3.16519205	     -1.24763444	    -50.65625955	     -0.62681723	     -7.34136749	     18.21878891	     -8.63291119	      1.43750783	     -0.17431014
